<svg width="256" height="256" viewBox="0 0 256 256" fill="none" xmlns="http://www.w3.org/2000/svg">
  <defs>
    <linearGradient id="tp" x1="36" y1="36" x2="220" y2="220" gradientUnits="userSpaceOnUse">
      <stop stop-color="#3B82F6"/>
      <stop offset="0.5" stop-color="#8B5CF6"/>
      <stop offset="1" stop-color="#EC4899"/>
    </linearGradient>
  </defs>
  <g fill="url(#tp)">
    <rect x="28" y="48" width="172" height="38" rx="19"/>
    <rect x="86" y="58" width="38" height="154" rx="19"/>
    <path d="M124 66 L124 158 L172 158 A46 46 0 0 0 172 66 Z"/>
  </g>
  <circle cx="172" cy="112" r="30" fill="#FAFAFC"/>
  <g transform="translate(172 112)" fill="#1E293B">
    <path d="M-3.6 -22 L3.6 -22 L4.8 -17.6 A14 14 0 0 1 9.9 -15.5 L13.4 -18.2 L18.2 -13.4 L15.5 -9.9 A14 14 0 0 1 17.6 -4.8 L22 -3.6 L22 3.6 L17.6 4.8 A14 14 0 0 1 15.5 9.9 L18.2 13.4 L13.4 18.2 L9.9 15.5 A14 14 0 0 1 4.8 17.6 L3.6 22 L-3.6 22 L-4.8 17.6 A14 14 0 0 1 -9.9 15.5 L-13.4 18.2 L-18.2 13.4 L-15.5 9.9 A14 14 0 0 1 -17.6 4.8 L-22 3.6 L-22 -3.6 L-17.6 -4.8 A14 14 0 0 1 -15.5 -9.9 L-18.2 -13.4 L-13.4 -18.2 L-9.9 -15.5 A14 14 0 0 1 -4.8 -17.6 L-3.6 -22 Z"/>
    <circle cx="0" cy="0" r="5" fill="#FAFAFC"/>
  </g>
</svg>
